<svg xmlns="http://www.w3.org/2000/svg" version="1.1" xmlns:xlink="http://www.w3.org/1999/xlink" width="200" height="200"><svg xmlns="http://www.w3.org/2000/svg" version="1.1" xmlns:xlink="http://www.w3.org/1999/xlink" viewBox="0 0 200 200"><rect width="200" height="200" fill="url('#gradient')"></rect><defs><linearGradient id="SvgjsLinearGradient1001" gradientTransform="rotate(45 0.5 0.5)"><stop offset="0%" stop-color="#72b6b5"></stop><stop offset="100%" stop-color="#182d3d"></stop></linearGradient></defs><g><g fill="#d2f0f3" transform="matrix(7.88366124893071,0,0,7.88366124893071,6.931738487286282,147.61734617867972)" stroke="#a7b7b5" stroke-width="0.2"><path d="M6.10 1.79L5.49 3.52Q1.97 2.53 1.97-1.03L1.97-1.03L1.97-2.96Q1.97-4.93 0.39-4.93L0.39-4.93L0.39-7.15Q1.97-7.15 1.97-9.13L1.97-9.13L1.97-11.18Q2.00-12.94 2.89-14.02Q3.77-15.11 5.49-15.60L5.49-15.60L6.10-13.88Q4.87-13.41 4.82-11.25L4.82-11.25L4.82-9.13Q4.82-6.94 3.02-6.04L3.02-6.04Q4.82-5.15 4.82-2.95L4.82-2.95L4.82-0.84Q4.87 1.32 6.10 1.79L6.10 1.79ZM16.66 0L13.37 0Q13.19-0.32 13.06-0.95L13.06-0.95Q12.15 0.20 10.52 0.20L10.52 0.20Q9.02 0.20 7.98-0.71Q6.93-1.61 6.93-2.98L6.93-2.98Q6.93-4.70 8.20-5.58Q9.47-6.46 11.89-6.46L11.89-6.46L12.91-6.46L12.91-7.01Q12.91-8.47 11.65-8.47L11.65-8.47Q10.48-8.47 10.48-7.31L10.48-7.31L7.19-7.31Q7.19-8.85 8.49-9.80Q9.79-10.76 11.82-10.76Q13.84-10.76 15.01-9.78Q16.18-8.79 16.21-7.07L16.21-7.07L16.21-2.39Q16.23-0.94 16.66-0.17L16.66-0.17L16.66 0ZM11.31-2.15L11.31-2.15Q11.92-2.15 12.33-2.41Q12.73-2.68 12.91-3.01L12.91-3.01L12.91-4.70L11.95-4.70Q10.23-4.70 10.23-3.15L10.23-3.15Q10.23-2.71 10.54-2.43Q10.84-2.15 11.31-2.15ZM18.13 3.52L17.51 1.79Q18.74 1.32 18.79-0.84L18.79-0.84L18.79-2.96Q18.79-5.16 20.61-6.04L20.61-6.04Q18.79-6.93 18.79-9.13L18.79-9.13L18.79-11.25Q18.74-13.41 17.51-13.88L17.51-13.88L18.13-15.60Q19.87-15.11 20.75-14.00Q21.63-12.89 21.64-11.09L21.64-11.09L21.64-9.13Q21.64-7.15 23.22-7.15L23.22-7.15L23.22-4.93Q21.64-4.93 21.64-2.97L21.64-2.97L21.64-0.89Q21.57 2.55 18.13 3.52L18.13 3.52Z"></path></g></g></svg><style>@media (prefers-color-scheme: light) { :root { filter: none; } }
@media (prefers-color-scheme: dark) { :root { filter: none; } }
</style></svg>